<svg xmlns="http://www.w3.org/2000/svg" xmlns:xlink="http://www.w3.org/1999/xlink" width="500" zoomAndPan="magnify" viewBox="0 0 375 374.999991" height="500" preserveAspectRatio="xMidYMid meet" version="1.2"><defs><clipPath id="b2b6abf7cf"><path d="M 10.027344 60.386719 L 364.777344 60.386719 L 364.777344 314 L 10.027344 314 Z M 10.027344 60.386719 "/></clipPath></defs><g id="4b5bf40008"><g clip-rule="nonzero" clip-path="url(#b2b6abf7cf)"><path style=" stroke:none;fill-rule:nonzero;fill:#fbe1c6;fill-opacity:1;" d="M 364.566406 185.175781 C 364.757812 195.160156 363.660156 204.933594 360.074219 214.210938 C 352.46875 233.878906 338.40625 246.65625 317.988281 252.054688 C 311.769531 253.648438 305.453125 254.453125 299.039062 254.476562 C 292.789062 254.542969 286.609375 255.234375 280.5 256.550781 C 271.46875 258.503906 263.667969 262.996094 256.847656 269.199219 C 251.402344 274.15625 246.71875 279.789062 241.984375 285.410156 C 238.882812 289.117188 235.945312 292.984375 231.96875 295.851562 C 231.46875 296.234375 231.03125 296.675781 230.652344 297.175781 C 223.984375 305.425781 215.078125 309.996094 204.984375 312.375 C 195.53125 314.613281 186.109375 313.726562 176.824219 311.113281 C 169.148438 308.988281 161.796875 305.945312 154.46875 302.855469 C 145.847656 299.214844 137.226562 295.5625 128.097656 293.378906 C 121.726562 291.855469 115.242188 290.695312 108.683594 291.140625 C 102.480469 291.558594 96.296875 292.375 90.144531 293.265625 C 81.652344 294.511719 73.292969 296.4375 64.800781 297.265625 C 57.792969 298.019531 50.789062 298.019531 43.785156 297.265625 C 31.609375 295.792969 22.28125 289.300781 16.214844 278.542969 C 11.308594 269.867188 10.023438 260.453125 10.941406 250.539062 C 12.289062 236.203125 16.691406 222.773438 22.691406 209.84375 C 27.871094 198.667969 33.441406 187.667969 38.886719 176.613281 C 42.332031 169.613281 45.546875 162.523438 48.292969 155.207031 C 51.882812 145.65625 53.957031 135.765625 55.433594 125.71875 C 56.941406 115.539062 58.386719 105.347656 62.015625 95.632812 C 68.640625 77.867188 81.253906 66.863281 99.644531 62.550781 C 105.746094 61.140625 111.925781 60.449219 118.1875 60.472656 C 123.957031 60.472656 129.726562 60.53125 135.5 60.472656 C 138.015625 60.460938 140.453125 60.890625 142.8125 61.761719 C 150.152344 64.371094 157.472656 67.054688 164.890625 69.433594 C 176.226562 73.132812 187.855469 75.117188 199.777344 75.390625 C 207.292969 75.539062 214.703125 74.441406 222.074219 73.160156 C 230.507812 71.6875 238.867188 69.765625 247.304688 68.351562 C 252.046875 67.550781 256.816406 66.609375 261.703125 66.992188 C 262.949219 67.039062 264.179688 66.90625 265.390625 66.59375 C 267.398438 66.0625 269.398438 66.089844 271.390625 66.679688 C 272.132812 66.949219 272.898438 67.066406 273.683594 67.039062 C 281.554688 66.4375 288.789062 68.875 295.867188 71.804688 C 305.910156 76.035156 314.8125 81.96875 322.574219 89.617188 C 342.675781 109.050781 355.289062 132.679688 361.65625 159.734375 C 363.714844 168.089844 364.683594 176.570312 364.566406 185.175781 Z M 14.207031 257.996094 C 14.808594 257.324219 15.238281 257.046875 15.324219 256.691406 C 15.5 255.914062 15.375 255.085938 14.394531 254.949219 C 14.113281 254.914062 13.46875 255.46875 13.492188 255.707031 C 13.648438 256.496094 13.886719 257.257812 14.207031 257.996094 Z M 14.207031 257.996094 "/></g></g></svg>