<?xml version="1.0" encoding="UTF-8"?>
<svg id="Layer_2" data-name="Layer 2" xmlns="http://www.w3.org/2000/svg" viewBox="0 0 248.26 129.17">
  <defs>
    <style>
      .cls-1 {
        fill: #fff;
        fill-rule: evenodd;
      }
    </style>
  </defs>
  <g id="Layer_2-2" data-name="Layer 2">
    <path id="Steam_playHere_white" class="cls-1" d="M237.17,0H11.1c-2.94,0-5.76,1.36-7.85,3.79C1.17,6.22,0,9.52,0,12.96V116.16c0,1.71,.28,3.4,.84,4.98,.56,1.58,1.37,3.01,2.4,4.22,1.03,1.21,2.26,2.17,3.61,2.82,1.35,.66,2.8,.99,4.26,.99H237.17c2.94,0,5.76-1.37,7.84-3.8,2.08-2.43,3.25-5.73,3.25-9.17V12.96c0-3.44-1.17-6.73-3.25-9.16-2.08-2.43-4.9-3.8-7.84-3.8ZM4.23,86.94V12.96c0-2.13,.72-4.17,2.01-5.67,1.29-1.5,3.03-2.35,4.86-2.35H237.17c1.82,0,3.57,.85,4.86,2.35,1.29,1.5,2.01,3.55,2.01,5.67V86.94H4.23Zm176.23,12.98h10.92v1.98h-8.65v5.41h7.62v2.01h-7.62v5.68h8.65v2.06h-10.92v-17.15Zm-6.65,17.15h2.57l-4.29-6.91c1.14-.39,2.01-1.04,2.6-1.94,.6-.91,.91-2.01,.91-3.28,0-1.52-.49-2.74-1.47-3.65-.96-.91-2.52-1.37-4.68-1.37h-5.88v17.15h2.28v-6.52h4.02l3.94,6.52Zm-4.11-8.5h-3.85v-6.66h3.36c1.42,0,2.44,.27,3.06,.81,.62,.54,.93,1.36,.93,2.45,0,1-.31,1.81-.93,2.45-.6,.64-1.46,.96-2.57,.96Zm-21.77-8.65h10.92v1.98h-8.65v5.41h7.62v2.01h-7.62v5.68h8.65v2.06h-10.92v-17.15Zm-7.94,0v7.5h-9.14v-7.5h-2.28v17.15h2.28v-7.67h9.14v7.67h2.25v-17.15h-2.25Zm-29.48,17.15h-2.3v-6.86l-6-10.29h2.69l4.51,8.13,4.51-8.13h2.55l-5.95,10.31v6.83Zm-11.61,0h2.52l-6.47-17.15h-2.62l-6.39,17.15h2.42l1.47-4.09h7.59l1.47,4.09Zm-8.4-6l3.14-8.77,3.14,8.77h-6.27Zm-6.91,6h-10.51v-17.15h2.28v15.11h8.23v2.03Zm-25.75-17.15v17.15h2.28v-6.47h3.04c1.27,0,2.36-.25,3.26-.73,.9-.51,1.58-1.18,2.03-2.01,.46-.85,.69-1.8,.69-2.84,0-1.57-.51-2.81-1.54-3.72-1.03-.91-2.51-1.37-4.46-1.37h-5.29Zm7.91,7.76c-.64,.62-1.56,.93-2.77,.93h-2.87v-6.71h2.87c2.48,0,3.72,1.06,3.72,3.18,0,1.11-.32,1.98-.96,2.6Zm2.21-86.49c-6.35,0-12.47,2.4-17.13,6.71-4.66,4.31-7.53,10.22-8.04,16.55l13.54,5.6c1.18-.81,2.58-1.25,4.02-1.25h.4l6.02-8.72v-.13c0-1.88,.56-3.72,1.61-5.29,1.05-1.57,2.53-2.79,4.27-3.51,1.74-.72,3.66-.91,5.5-.54,1.85,.37,3.54,1.27,4.88,2.61,1.33,1.33,2.24,3.03,2.61,4.88,.37,1.85,.18,3.76-.54,5.5-.72,1.74-1.94,3.23-3.51,4.27-1.57,1.05-3.41,1.61-5.29,1.61h-.22l-8.58,6.12v.34c-.01,1.77-.68,3.46-1.87,4.77-1.19,1.3-2.82,2.12-4.58,2.3-1.76,.17-3.52-.31-4.94-1.35-1.42-1.05-2.41-2.58-2.77-4.31l-9.68-4c1.28,4.52,3.79,8.6,7.26,11.77,3.47,3.17,7.75,5.31,12.37,6.18,4.62,.87,9.39,.43,13.77-1.26,4.38-1.69,8.21-4.57,11.04-8.32,2.83-3.75,4.57-8.21,5-12.89,.44-4.68-.44-9.39-2.54-13.59-2.09-4.21-5.32-7.75-9.31-10.22-3.99-2.47-8.6-3.78-13.3-3.78v-.04Zm-9.34,38.32l-3.09-1.28c.45,.94,1.16,1.73,2.06,2.27,.89,.54,1.92,.81,2.96,.77,1.04-.03,2.05-.37,2.9-.97,.85-.6,1.51-1.43,1.9-2.4,.39-.97,.48-2.03,.28-3.05-.2-1.02-.7-1.96-1.43-2.7-.73-.74-1.66-1.26-2.68-1.48-1.02-.22-2.08-.15-3.05,.22l3.21,1.32c.97,.4,1.73,1.17,2.13,2.14,.4,.97,.4,2.06,0,3.02-.4,.97-1.17,1.73-2.14,2.13-.97,.4-2.06,.4-3.02,0h-.01Zm24.04-19.57c0-1.25-.37-2.48-1.06-3.53-.69-1.04-1.68-1.86-2.84-2.34s-2.43-.61-3.66-.37c-1.23,.24-2.36,.84-3.25,1.73-.89,.88-1.5,2.01-1.74,3.24-.25,1.23-.13,2.51,.35,3.67,.48,1.16,1.29,2.15,2.33,2.85,1.04,.7,2.27,1.08,3.52,1.08,1.68,0,3.3-.66,4.49-1.85,1.19-1.19,1.87-2.8,1.87-4.48Zm-11.07,0c0-.94,.28-1.86,.8-2.65,.52-.78,1.27-1.4,2.14-1.76,.87-.36,1.83-.46,2.75-.27,.92,.18,1.77,.64,2.44,1.3s1.12,1.52,1.3,2.44c.18,.92,.09,1.88-.27,2.75-.36,.87-.97,1.62-1.76,2.14-.78,.52-1.71,.8-2.65,.8-.63,0-1.26-.11-1.84-.35-.58-.24-1.12-.59-1.56-1.03-.45-.44-.8-.97-1.05-1.56-.24-.58-.37-1.21-.36-1.84h.05Zm48.17,.6l-1.66,2.88c-1.32-.89-2.88-1.38-4.47-1.41-1.71,0-2.77,.7-2.77,1.97,0,1.54,1.88,1.9,4.67,2.9,3,1.06,4.72,2.31,4.72,5.06,0,3.76-2.96,5.87-7.2,5.87-2.27,0-4.51-.58-6.49-1.71l1.2-3.2c1.57,.83,3.32,1.28,5.09,1.31,2.24,0,3.32-.83,3.32-2.05,0-1.4-1.63-1.82-4.25-2.69-3-1-5.07-2.31-5.07-5.35,0-3.43,2.77-5.4,6.7-5.4,2.2-.06,4.37,.57,6.2,1.81Zm12.82,1.82v15.14h-3.88v-15.14h-5.62v-3.32h15.07v3.32h-5.57Zm13.72,0v4.16h7.4v3.32h-7.4v4.33h8.58v3.32h-12.42v-18.44h12.44v3.32l-8.6-.02Zm17.2,11.56l-1.22,3.58h-4.05l6.94-18.45h3.88l7.12,18.45h-4.19l-1.27-3.58h-7.2Zm3.57-10.47l-2.52,7.39h5.09l-2.57-7.39Zm28.64,2.73l-5.07,10.78h-2.18l-4.98-10.69v11.22h-3.7v-18.45h3.69l6.2,13.29,5.98-13.29h3.73v18.45h-3.7l.03-11.32Zm11.17-4.81c0,.51-.15,1-.43,1.42-.28,.42-.68,.75-1.15,.94-.47,.19-.98,.24-1.48,.14-.5-.1-.95-.34-1.31-.7-.36-.36-.6-.81-.7-1.31-.1-.5-.05-1.01,.15-1.48,.19-.47,.52-.87,.94-1.15,.42-.28,.92-.43,1.42-.43,.34,0,.68,.05,.99,.18,.31,.13,.6,.31,.84,.55,.24,.24,.43,.53,.55,.84,.12,.31,.18,.65,.17,.99Zm-4.68,0c0,.42,.13,.83,.37,1.17,.24,.35,.57,.62,.96,.77,.39,.16,.82,.2,1.23,.11,.41-.08,.79-.29,1.08-.59,.3-.3,.5-.68,.58-1.09,.08-.41,.04-.84-.12-1.22-.16-.39-.43-.72-.78-.95s-.76-.36-1.18-.36c-.28,0-.57,.04-.83,.14-.26,.1-.5,.26-.7,.46-.2,.2-.36,.44-.46,.71-.1,.26-.15,.55-.14,.83Zm2.17-1.31c.66,0,.88,.35,.88,.73,0,.15-.04,.29-.12,.42-.08,.12-.2,.22-.33,.28l.59,1.11h-.49l-.5-.99h-.51v.99h-.4v-2.54h.89Zm-.48,1.19h.45c.06,0,.12,0,.17-.02,.06-.02,.11-.05,.15-.09,.04-.04,.08-.09,.1-.14,.02-.05,.04-.11,.04-.17,0-.23-.13-.38-.47-.38h-.45v.8Z"/>
  </g>
</svg>